<svg width="20" height="20" viewBox="0 0 20 20" fill="none" xmlns="http://www.w3.org/2000/svg">
<mask id="mask0_3_2449" style="mask-type:alpha" maskUnits="userSpaceOnUse" x="0" y="0" width="20" height="20">
<rect width="20" height="20" fill="white"/>
</mask>
<g mask="url(#mask0_3_2449)">
<path fill-rule="evenodd" clip-rule="evenodd" d="M16.5865 7.15435C16.5457 7.06602 16.4948 6.98185 16.4232 6.91018L11.4232 1.91018C11.3515 1.83852 11.2673 1.78768 11.179 1.74685C11.154 1.73518 11.1273 1.72852 11.1007 1.71935C11.0307 1.69602 10.959 1.68102 10.8848 1.67685C10.8673 1.67518 10.8515 1.66602 10.834 1.66602H5.00065C4.08148 1.66602 3.33398 2.41352 3.33398 3.33268V16.666C3.33398 17.5852 4.08148 18.3327 5.00065 18.3327H15.0007C15.9198 18.3327 16.6673 17.5852 16.6673 16.666V7.49935C16.6673 7.48185 16.6582 7.46602 16.6565 7.44768C16.6523 7.37352 16.6382 7.30185 16.614 7.23185C16.6057 7.20518 16.5982 7.17935 16.5865 7.15435ZM13.823 6.66672H11.668V4.51172L13.823 6.66672ZM5 16.6654V3.33203H10V7.4987C10 7.95953 10.3725 8.33203 10.8333 8.33203H15L15.0017 16.6654H5Z" fill="#74788D"/>
<path fill-rule="evenodd" clip-rule="evenodd" d="M6.66602 10H13.3327V11.6667H6.66602V10ZM6.66602 13.332H13.3327V14.9987H6.66602V13.332ZM6.66602 6.66602H8.33268V8.33268H6.66602V6.66602Z" fill="#74788D"/>
</g>
</svg>
