<svg width="20" height="20" viewBox="0 0 20 20" fill="none" xmlns="http://www.w3.org/2000/svg">
<path fill-rule="evenodd" clip-rule="evenodd" d="M2.49999 10.8334H3.33333V12.5V16.6667C3.33333 17.5859 4.08083 18.3334 4.99999 18.3334H15C15.9192 18.3334 16.6667 17.5859 16.6667 16.6667V12.5V10.8334H17.5C17.8367 10.8334 18.1417 10.63 18.27 10.3192C18.3992 10.0075 18.3275 9.64921 18.0892 9.41088L10.5892 1.91088C10.2633 1.58505 9.73666 1.58505 9.41083 1.91088L1.91083 9.41088C1.67249 9.64921 1.60083 10.0075 1.72999 10.3192C1.85916 10.63 2.16333 10.8334 2.49999 10.8334ZM10 3.67838L15 8.67837V12.5L15.0008 16.6667H5V12.5V10V8.67921L10 3.67838Z" fill="#74788D"/>
<path fill-rule="evenodd" clip-rule="evenodd" d="M9.99996 14.1667C11.8383 14.1667 13.3333 12.6717 13.3333 10.8333C13.3333 8.995 11.8383 7.5 9.99996 7.5C8.16163 7.5 6.66663 8.995 6.66663 10.8333C6.66663 12.6717 8.16163 14.1667 9.99996 14.1667ZM9.99996 9.16666C10.9191 9.16666 11.6666 9.91416 11.6666 10.8333C11.6666 11.7525 10.9191 12.5 9.99996 12.5C9.08079 12.5 8.33329 11.7525 8.33329 10.8333C8.33329 9.91416 9.08079 9.16666 9.99996 9.16666Z" fill="#74788D"/>
</svg>
