<svg width="14" height="14" viewBox="0 0 14 14" fill="none" xmlns="http://www.w3.org/2000/svg">
<path fill-rule="evenodd" clip-rule="evenodd" d="M12.2501 6.41667H10.5001V2.33333C10.5001 2.01075 10.2393 1.75 9.91675 1.75H1.75008C1.4275 1.75 1.16675 2.01075 1.16675 2.33333V10.5C1.16675 11.4648 1.95191 12.25 2.91675 12.25H11.0834C12.0482 12.25 12.8334 11.4648 12.8334 10.5V7C12.8334 6.67742 12.5727 6.41667 12.2501 6.41667ZM2.91683 11.0842C2.59483 11.0842 2.3335 10.8229 2.3335 10.5009V2.91758H9.3335V10.5009C9.3335 10.7057 9.36908 10.9022 9.43325 11.0842H2.91683ZM11.6667 10.4991C11.6667 10.8211 11.4053 11.0824 11.0833 11.0824C10.7613 11.0824 10.5 10.8211 10.5 10.4991V7.58242H11.6667V10.4991Z" fill="#BBBFCB"/>
<path fill-rule="evenodd" clip-rule="evenodd" d="M3.5 4.08301H8.16667V5.24967H3.5V4.08301ZM3.5 6.41543H8.16667V7.5821H3.5V6.41543ZM6.41675 8.75059H8.16675V9.91725H6.41675V8.75059Z" fill="#BBBFCB"/>
</svg>
