<svg width="20" height="20" viewBox="0 0 20 20" fill="none" xmlns="http://www.w3.org/2000/svg">
<path fill-rule="evenodd" clip-rule="evenodd" d="M10 6.6665C9.01837 6.6665 8.33337 7.3515 8.33337 8.33317C8.33337 9.31484 9.01837 9.99984 10 9.99984C10.9817 9.99984 11.6667 9.31484 11.6667 8.33317C11.6667 7.3515 10.9817 6.6665 10 6.6665Z" fill="#74788D"/>
<path fill-rule="evenodd" clip-rule="evenodd" d="M10.8333 13.8101H9.16661C7.97327 13.8101 6.97577 14.6517 6.72827 15.7717C7.7016 16.3367 8.81994 16.6667 9.99994 16.6667C11.1799 16.6667 12.2983 16.3367 13.2716 15.7726C13.0241 14.6517 12.0266 13.8101 10.8333 13.8101Z" fill="#74788D"/>
<path fill-rule="evenodd" clip-rule="evenodd" d="M9.99996 1.6665C5.48246 1.6665 1.66663 5.48234 1.66663 9.99984C1.66663 12.6573 2.99329 15.0648 4.99996 16.6032V16.6665H5.08496C6.47496 17.704 8.17746 18.3332 9.99996 18.3332C11.8225 18.3332 13.525 17.704 14.915 16.6665H15V16.6032C17.0066 15.0648 18.3333 12.6582 18.3333 9.99984C18.3333 5.48234 14.5175 1.6665 9.99996 1.6665ZM6.72829 15.7723C6.97579 14.6515 7.97329 13.8107 9.16663 13.8107H10.8333C12.0266 13.8107 13.0241 14.6523 13.2716 15.7723C12.2983 16.3365 11.18 16.6665 9.99996 16.6665C8.81996 16.6665 7.70163 16.3365 6.72829 15.7723ZM14.675 14.7007C14.0441 13.2007 12.56 12.144 10.8333 12.144H9.16663C7.43996 12.144 5.95496 13.2015 5.32496 14.7007C4.10246 13.4849 3.33329 11.8132 3.33329 9.99986C3.33329 6.38569 6.38579 3.33319 9.99996 3.33319C13.6141 3.33319 16.6666 6.38569 16.6666 9.99986C16.6666 11.8132 15.8975 13.4849 14.675 14.7007Z" fill="#74788D"/>
<path fill-rule="evenodd" clip-rule="evenodd" d="M9.99996 5C8.09996 5 6.66663 6.43333 6.66663 8.33333C6.66663 10.2333 8.09996 11.6667 9.99996 11.6667C11.9 11.6667 13.3333 10.2333 13.3333 8.33333C13.3333 6.43333 11.9 5 9.99996 5ZM9.99996 10C9.01829 10 8.33329 9.31502 8.33329 8.33335C8.33329 7.35169 9.01829 6.66669 9.99996 6.66669C10.9816 6.66669 11.6666 7.35169 11.6666 8.33335C11.6666 9.31502 10.9816 10 9.99996 10Z" fill="#74788D"/>
</svg>
