<svg width="20" height="20" viewBox="0 0 20 20" fill="none" xmlns="http://www.w3.org/2000/svg">
<path fill-rule="evenodd" clip-rule="evenodd" d="M4.99996 17.5003H2.49996C2.03913 17.5003 1.66663 17.127 1.66663 16.667V10.0003C1.66663 9.54033 2.03913 9.16699 2.49996 9.16699H4.99996C5.46079 9.16699 5.83329 9.54033 5.83329 10.0003V16.667C5.83329 17.127 5.46079 17.5003 4.99996 17.5003ZM10.8333 17.5003H8.33329C7.87246 17.5003 7.49996 17.127 7.49996 16.667V2.50033C7.49996 2.04033 7.87246 1.66699 8.33329 1.66699H10.8333C11.2941 1.66699 11.6666 2.04033 11.6666 2.50033V16.667C11.6666 17.127 11.2941 17.5003 10.8333 17.5003ZM16.6666 17.5003H14.1666C13.7058 17.5003 13.3333 17.127 13.3333 16.667V7.50033C13.3333 7.04033 13.7058 6.66699 14.1666 6.66699H16.6666C17.1275 6.66699 17.5 7.04033 17.5 7.50033V16.667C17.5 17.127 17.1275 17.5003 16.6666 17.5003Z" fill="#74788D"/>
</svg>
