<svg width="14" height="14" viewBox="0 0 14 14" fill="none" xmlns="http://www.w3.org/2000/svg">
<path d="M10 0V3.5H14L10 0ZM9 3.5V0H3.5C2.67156 0 2 0.587617 2 1.3125V6.125H0.5C0.223875 6.125 0 6.32188 0 6.5625V7.4375C0 7.67812 0.223875 7.875 0.5 7.875H4.5C4.68944 7.875 4.86219 7.96901 4.94719 8.11683L5.5 9.08359L7.05281 6.36617C7.22275 6.07059 7.7775 6.07059 7.94719 6.36617L8.80937 7.875H11C11.2764 7.875 11.5 8.07067 11.5 8.3125C11.5 8.55433 11.275 8.75 11 8.75H8.5C8.31056 8.75 8.13781 8.65599 8.05281 8.50817L7.5 7.54141L5.94719 10.2588C5.8625 10.407 5.69063 10.5 5.5 10.5C5.30937 10.5 5.13781 10.406 5.05281 10.2582L4.19063 8.75H2V12.6875C2 13.4121 2.67156 14 3.5 14H12.5C13.3284 14 14 13.4124 14 12.6875V4.375H10.0281C9.44687 4.375 9 3.98398 9 3.5Z" fill="#BBBFCB"/>
</svg>
