<svg width="14" height="14" viewBox="0 0 14 14" fill="none" xmlns="http://www.w3.org/2000/svg">
<path d="M4.15898 1.04353C4.42695 1.28607 4.44883 1.70087 4.20547 1.97048L2.23781 4.15907C2.11723 4.29032 1.94715 4.36962 1.76723 4.35048C1.5873 4.38056 1.4134 4.30946 1.28598 4.15907L0.192199 3.06532C-0.0640664 2.8329 -0.0640664 2.41728 0.192199 2.16107C0.448438 1.90486 0.864063 1.90486 1.12027 2.16107L1.72484 2.76454L3.23203 1.0922C3.47266 0.822864 3.88828 0.800989 4.15898 1.04353ZM4.15898 5.41962C4.42695 5.66025 4.44883 6.07587 4.20547 6.34657L2.23781 8.53407C2.11723 8.66532 1.94715 8.74462 1.76723 8.72548C1.5873 8.75556 1.4134 8.68446 1.28598 8.53407L0.192199 7.44032C-0.0640664 7.2079 -0.0640664 6.79228 0.192199 6.53525C0.448438 6.28095 0.864063 6.28095 1.12027 6.53525L1.72484 7.13954L3.23203 5.4661C3.47266 5.19814 3.88828 5.17626 4.15898 5.41962ZM6.125 2.62509C6.125 2.14193 6.51602 1.75009 7 1.75009H13.125C13.609 1.75009 14 2.14193 14 2.62509C14 3.10907 13.609 3.50009 13.125 3.50009H7C6.51602 3.50009 6.125 3.10907 6.125 2.62509ZM6.125 7.00009C6.125 6.5161 6.51602 6.12509 7 6.12509H13.125C13.609 6.12509 14 6.5161 14 7.00009C14 7.48407 13.609 7.87509 13.125 7.87509H7C6.51602 7.87509 6.125 7.48407 6.125 7.00009ZM4.375 11.3751C4.375 10.8911 4.76602 10.5001 5.25 10.5001H13.125C13.609 10.5001 14 10.8911 14 11.3751C14 11.8591 13.609 12.2501 13.125 12.2501H5.25C4.76602 12.2501 4.375 11.8591 4.375 11.3751ZM0 11.3751C0 10.6505 0.587617 10.0626 1.3125 10.0626C2.03738 10.0626 2.625 10.6505 2.625 11.3751C2.625 12.0997 2.03738 12.6876 1.3125 12.6876C0.587617 12.6876 0 12.0997 0 11.3751Z" fill="#BBBFCB"/>
</svg>
