<svg width="14" height="14" viewBox="0 0 14 14" fill="none" xmlns="http://www.w3.org/2000/svg">
<g clip-path="url(#clip0_3_3888)">
<path d="M13.6112 6.125H12.8942C12.6803 5.57812 12.3692 5.09414 11.9851 4.68945L12.4445 2.625H11.6667C10.9522 2.625 10.3202 2.99414 9.89243 3.56289C9.70771 3.53281 9.52541 3.5 9.3334 3.5H6.22229C4.34104 3.5 2.77333 5.00391 2.41117 7H1.36117C1.00145 7 0.717077 6.63086 0.789993 6.2125C0.843466 5.90078 1.10354 5.6875 1.38548 5.6875H1.40979C1.48999 5.6875 1.55562 5.61367 1.55562 5.52344V4.97656C1.55562 4.88633 1.48999 4.8125 1.40979 4.8125C0.717077 4.8125 0.0997152 5.37031 0.0122152 6.14141C-0.0947293 7.07656 0.551799 7.875 1.36117 7.875H2.3334C2.3334 9.30234 2.95076 10.5574 3.88895 11.3559V13.5625C3.88895 13.8031 4.06395 14 4.27784 14H5.8334C6.04729 14 6.22229 13.8031 6.22229 13.5625V12.25H9.3334V13.5625C9.3334 13.8031 9.5084 14 9.72229 14H11.2778C11.4917 14 11.6667 13.8031 11.6667 13.5625V11.3559C11.9535 11.1125 12.2087 10.8254 12.4275 10.5H13.6112C13.8251 10.5 14.0001 10.3031 14.0001 10.0625V6.5625C14.0001 6.32188 13.8251 6.125 13.6112 6.125ZM10.5001 7.875C10.2862 7.875 10.1112 7.67812 10.1112 7.4375C10.1112 7.19688 10.2862 7 10.5001 7C10.714 7 10.889 7.19688 10.889 7.4375C10.889 7.67812 10.714 7.875 10.5001 7.875ZM6.22229 2.625H9.3334C9.46465 2.625 9.59347 2.63594 9.71986 2.64688C9.71986 2.63867 9.72229 2.6332 9.72229 2.625C9.72229 1.17578 8.67715 0 7.38895 0C6.10076 0 5.05562 1.17578 5.05562 2.625C5.05562 2.68242 5.06777 2.73711 5.0702 2.79453C5.43965 2.68789 5.82368 2.625 6.22229 2.625Z" fill="#BBBFCB"/>
</g>
<defs>
<clipPath id="clip0_3_3888">
<rect width="14" height="14" fill="white"/>
</clipPath>
</defs>
</svg>
