<svg width="49" height="48" viewBox="0 0 49 48" fill="none" xmlns="http://www.w3.org/2000/svg">
<ellipse cx="24.3865" cy="24" rx="24.3865" ry="24" fill="#FDBA34"/>
<mask id="mask0_819_9036" style="mask-type:alpha" maskUnits="userSpaceOnUse" x="0" y="0" width="49" height="48">
<ellipse cx="24.3865" cy="24" rx="24.3865" ry="24" fill="white"/>
</mask>
<g mask="url(#mask0_819_9036)">
<rect width="8.07584" height="54.2005" transform="matrix(0.851138 0.524943 -0.534906 0.844912 35.103 -0.794922)" fill="white" fill-opacity="0.101961"/>
</g>
<path fill-rule="evenodd" clip-rule="evenodd" d="M31 25.588V22.002C31 18.785 28.815 16.075 25.855 15.26C25.562 14.522 24.846 14.002 24 14.002C23.154 14.002 22.438 14.522 22.145 15.26C19.185 16.076 17 18.785 17 22.002V25.588L15.293 27.295C15.105 27.482 15 27.736 15 28.002V30.002C15 30.555 15.447 31.002 16 31.002H32C32.553 31.002 33 30.555 33 30.002V28.002C33 27.736 32.895 27.482 32.707 27.295L31 25.588ZM31.0007 29.002H17.0007V28.416L18.7077 26.709C18.8957 26.522 19.0007 26.268 19.0007 26.002V22.002C19.0007 19.245 21.2437 17.002 24.0007 17.002C26.7577 17.002 29.0007 19.245 29.0007 22.002V26.002C29.0007 26.268 29.1057 26.522 29.2937 26.709L31.0007 28.416V29.002ZM23.9991 34.002C25.3101 34.002 26.4061 33.168 26.8171 32.002H21.1811C21.5921 33.168 22.6881 34.002 23.9991 34.002Z" fill="white"/>
</svg>
