<svg width="49" height="48" viewBox="0 0 49 48" fill="none" xmlns="http://www.w3.org/2000/svg">
<ellipse cx="24.0698" cy="24" rx="24.0698" ry="24" fill="#2380F1"/>
<mask id="mask0_819_9034" style="mask-type:alpha" maskUnits="userSpaceOnUse" x="0" y="0" width="49" height="48">
<ellipse cx="24.0698" cy="24" rx="24.0698" ry="24" fill="white"/>
</mask>
<g mask="url(#mask0_819_9034)">
<rect x="34" y="-1" width="8" height="54" transform="rotate(32 34 -1)" fill="white" fill-opacity="0.101961"/>
</g>
<path d="M32.5 18C29.89 18.7 26.83 19 24 19C21.17 19 18.11 18.7 15.5 18L15 20C16.86 20.5 19 20.83 21 21V34H23V28H25V34H27V21C29 20.83 31.14 20.5 33 20L32.5 18ZM24 18C25.1 18 26 17.1 26 16C26 14.9 25.1 14 24 14C22.9 14 22 14.9 22 16C22 17.1 22.9 18 24 18Z" fill="white"/>
</svg>
